<mxfile host="www.draw.io" modified="2020-01-27T14:50:11.051Z" agent="Mozilla/5.0 (Windows NT 10.0; Win64; x64; rv:72.0) Gecko/20100101 Firefox/72.0" etag="2xPVZD1hGQK-qU45UX3J" version="12.5.8" type="github">
  <diagram id="XQMrVK1RVz-68izrUjCO" name="Page-1">
    <mxGraphModel dx="1422" dy="911" grid="1" gridSize="10" guides="1" tooltips="1" connect="1" arrows="1" fold="1" page="1" pageScale="1" pageWidth="1654" pageHeight="1169" math="0" shadow="0">
      <root>
        <mxCell id="0"/>
        <mxCell id="1" parent="0"/>
        <mxCell id="Smm-fJ4TjiPaxET0HikU-2" value="Customer Journey" style="text;html=1;strokeColor=none;fillColor=none;align=center;verticalAlign=middle;whiteSpace=wrap;rounded=0;" parent="1" vertex="1">
          <mxGeometry x="30" y="235" width="70" height="50" as="geometry"/>
        </mxCell>
        <mxCell id="Smm-fJ4TjiPaxET0HikU-3" value="&lt;div&gt;Conversion Funnel&lt;/div&gt;" style="text;html=1;strokeColor=none;fillColor=none;align=center;verticalAlign=middle;whiteSpace=wrap;rounded=0;" parent="1" vertex="1">
          <mxGeometry x="30" y="350" width="70" height="50" as="geometry"/>
        </mxCell>
        <mxCell id="DGvBjG2KnV4VR2zkshFl-1" value="&lt;div&gt;Editorial &lt;br&gt;&lt;/div&gt;" style="text;html=1;strokeColor=none;fillColor=none;align=center;verticalAlign=middle;whiteSpace=wrap;rounded=0;" parent="1" vertex="1">
          <mxGeometry x="40" y="420" width="70" height="50" as="geometry"/>
        </mxCell>
        <mxCell id="DGvBjG2KnV4VR2zkshFl-2" value="Data" style="text;html=1;strokeColor=none;fillColor=none;align=center;verticalAlign=middle;whiteSpace=wrap;rounded=0;" parent="1" vertex="1">
          <mxGeometry x="40" y="690" width="70" height="50" as="geometry"/>
        </mxCell>
        <mxCell id="DGvBjG2KnV4VR2zkshFl-3" value="&lt;div&gt;Resources&lt;/div&gt;" style="text;html=1;strokeColor=none;fillColor=none;align=center;verticalAlign=middle;whiteSpace=wrap;rounded=0;" parent="1" vertex="1">
          <mxGeometry x="40" y="780" width="70" height="50" as="geometry"/>
        </mxCell>
        <mxCell id="DGvBjG2KnV4VR2zkshFl-4" value="Organization" style="text;html=1;strokeColor=none;fillColor=none;align=center;verticalAlign=middle;whiteSpace=wrap;rounded=0;" parent="1" vertex="1">
          <mxGeometry x="40" y="860" width="70" height="50" as="geometry"/>
        </mxCell>
        <mxCell id="DGvBjG2KnV4VR2zkshFl-5" value="&lt;div&gt;Costs and Benefits&lt;/div&gt;" style="text;html=1;strokeColor=none;fillColor=none;align=center;verticalAlign=middle;whiteSpace=wrap;rounded=0;" parent="1" vertex="1">
          <mxGeometry x="40" y="960" width="70" height="50" as="geometry"/>
        </mxCell>
        <mxCell id="DGvBjG2KnV4VR2zkshFl-6" value="Awareness" style="shape=dataStorage;whiteSpace=wrap;html=1;direction=west;" parent="1" vertex="1">
          <mxGeometry x="310" y="220" width="210" height="80" as="geometry"/>
        </mxCell>
        <mxCell id="DGvBjG2KnV4VR2zkshFl-7" value="Consideration" style="shape=dataStorage;whiteSpace=wrap;html=1;direction=west;" parent="1" vertex="1">
          <mxGeometry x="580" y="220" width="210" height="80" as="geometry"/>
        </mxCell>
        <mxCell id="DGvBjG2KnV4VR2zkshFl-8" value="&lt;div&gt;Decision&lt;/div&gt;" style="shape=dataStorage;whiteSpace=wrap;html=1;direction=west;" parent="1" vertex="1">
          <mxGeometry x="860" y="220" width="210" height="80" as="geometry"/>
        </mxCell>
        <mxCell id="DGvBjG2KnV4VR2zkshFl-10" value="Personas" style="text;html=1;strokeColor=none;fillColor=none;align=center;verticalAlign=middle;whiteSpace=wrap;rounded=0;" parent="1" vertex="1">
          <mxGeometry x="180" y="360" width="60" height="20" as="geometry"/>
        </mxCell>
        <mxCell id="DGvBjG2KnV4VR2zkshFl-11" value="&lt;div&gt;Touchpoints&lt;/div&gt;" style="text;html=1;strokeColor=none;fillColor=none;align=center;verticalAlign=middle;whiteSpace=wrap;rounded=0;" parent="1" vertex="1">
          <mxGeometry x="180" y="250" width="60" height="20" as="geometry"/>
        </mxCell>
        <mxCell id="DGvBjG2KnV4VR2zkshFl-16" value="Top of Funnel" style="shape=dataStorage;whiteSpace=wrap;html=1;direction=west;" parent="1" vertex="1">
          <mxGeometry x="310" y="320" width="210" height="80" as="geometry"/>
        </mxCell>
        <mxCell id="DGvBjG2KnV4VR2zkshFl-17" value="Middle of Funnel" style="shape=dataStorage;whiteSpace=wrap;html=1;direction=west;" parent="1" vertex="1">
          <mxGeometry x="580" y="320" width="210" height="80" as="geometry"/>
        </mxCell>
        <mxCell id="DGvBjG2KnV4VR2zkshFl-18" value="Bottom of Funnel" style="shape=dataStorage;whiteSpace=wrap;html=1;direction=west;" parent="1" vertex="1">
          <mxGeometry x="860" y="320" width="210" height="80" as="geometry"/>
        </mxCell>
        <mxCell id="DGvBjG2KnV4VR2zkshFl-20" value="Lead" style="text;html=1;strokeColor=none;fillColor=none;align=center;verticalAlign=middle;whiteSpace=wrap;rounded=0;" parent="1" vertex="1">
          <mxGeometry x="540" y="350" width="40" height="20" as="geometry"/>
        </mxCell>
        <mxCell id="DGvBjG2KnV4VR2zkshFl-21" value="" style="edgeStyle=orthogonalEdgeStyle;rounded=0;orthogonalLoop=1;jettySize=auto;html=1;" parent="1" source="DGvBjG2KnV4VR2zkshFl-16" target="DGvBjG2KnV4VR2zkshFl-20" edge="1">
          <mxGeometry relative="1" as="geometry"/>
        </mxCell>
        <mxCell id="DGvBjG2KnV4VR2zkshFl-22" value="Qualified Lead" style="text;html=1;strokeColor=none;fillColor=none;align=center;verticalAlign=middle;whiteSpace=wrap;rounded=0;" parent="1" vertex="1">
          <mxGeometry x="675" y="370" width="40" height="20" as="geometry"/>
        </mxCell>
        <mxCell id="DGvBjG2KnV4VR2zkshFl-23" value="Sales Lead" style="text;html=1;strokeColor=none;fillColor=none;align=center;verticalAlign=middle;whiteSpace=wrap;rounded=0;" parent="1" vertex="1">
          <mxGeometry x="820" y="350" width="40" height="20" as="geometry"/>
        </mxCell>
        <mxCell id="DGvBjG2KnV4VR2zkshFl-25" value="Distribution" style="text;html=1;strokeColor=none;fillColor=none;align=center;verticalAlign=middle;whiteSpace=wrap;rounded=0;" parent="1" vertex="1">
          <mxGeometry x="40" y="550" width="70" height="50" as="geometry"/>
        </mxCell>
        <mxCell id="M0HfmNeQTQLEJfHReSE7-1" value="&lt;div&gt;Monitoring&lt;/div&gt;" style="text;html=1;strokeColor=none;fillColor=none;align=center;verticalAlign=middle;whiteSpace=wrap;rounded=0;" parent="1" vertex="1">
          <mxGeometry x="170" y="670" width="80" height="20" as="geometry"/>
        </mxCell>
        <mxCell id="M0HfmNeQTQLEJfHReSE7-2" value="Reporting" style="text;html=1;strokeColor=none;fillColor=none;align=center;verticalAlign=middle;whiteSpace=wrap;rounded=0;" parent="1" vertex="1">
          <mxGeometry x="170" y="705" width="80" height="20" as="geometry"/>
        </mxCell>
        <mxCell id="M0HfmNeQTQLEJfHReSE7-3" value="&lt;div&gt;Analysis&lt;/div&gt;" style="text;html=1;strokeColor=none;fillColor=none;align=center;verticalAlign=middle;whiteSpace=wrap;rounded=0;" parent="1" vertex="1">
          <mxGeometry x="170" y="740" width="80" height="20" as="geometry"/>
        </mxCell>
        <mxCell id="M0HfmNeQTQLEJfHReSE7-4" style="edgeStyle=orthogonalEdgeStyle;rounded=0;orthogonalLoop=1;jettySize=auto;html=1;exitX=0.5;exitY=1;exitDx=0;exitDy=0;" parent="1" source="M0HfmNeQTQLEJfHReSE7-2" target="M0HfmNeQTQLEJfHReSE7-2" edge="1">
          <mxGeometry relative="1" as="geometry"/>
        </mxCell>
        <mxCell id="M0HfmNeQTQLEJfHReSE7-5" value="Paid Media" style="text;html=1;strokeColor=none;fillColor=none;align=center;verticalAlign=middle;whiteSpace=wrap;rounded=0;" parent="1" vertex="1">
          <mxGeometry x="170" y="530" width="80" height="20" as="geometry"/>
        </mxCell>
        <mxCell id="M0HfmNeQTQLEJfHReSE7-6" value="Owned Media" style="text;html=1;strokeColor=none;fillColor=none;align=center;verticalAlign=middle;whiteSpace=wrap;rounded=0;" parent="1" vertex="1">
          <mxGeometry x="170" y="565" width="80" height="20" as="geometry"/>
        </mxCell>
        <mxCell id="M0HfmNeQTQLEJfHReSE7-7" value="Earned Media" style="text;html=1;strokeColor=none;fillColor=none;align=center;verticalAlign=middle;whiteSpace=wrap;rounded=0;" parent="1" vertex="1">
          <mxGeometry x="170" y="600" width="80" height="20" as="geometry"/>
        </mxCell>
        <mxCell id="M0HfmNeQTQLEJfHReSE7-8" value="Content Templates" style="text;html=1;strokeColor=none;fillColor=none;align=center;verticalAlign=middle;whiteSpace=wrap;rounded=0;" parent="1" vertex="1">
          <mxGeometry x="170" y="470" width="80" height="20" as="geometry"/>
        </mxCell>
        <mxCell id="M0HfmNeQTQLEJfHReSE7-9" value="Content Mapping" style="text;html=1;strokeColor=none;fillColor=none;align=center;verticalAlign=middle;whiteSpace=wrap;rounded=0;" parent="1" vertex="1">
          <mxGeometry x="170" y="420" width="100" height="20" as="geometry"/>
        </mxCell>
        <mxCell id="9HiCa-SAGG04eWKxugLF-1" value="&lt;b&gt;Attract potential leads&lt;/b&gt;" style="shape=dataStorage;whiteSpace=wrap;html=1;direction=west;" vertex="1" parent="1">
          <mxGeometry x="310" y="430" width="210" height="80" as="geometry"/>
        </mxCell>
        <mxCell id="9HiCa-SAGG04eWKxugLF-2" value="Text" style="text;html=1;strokeColor=none;fillColor=none;align=center;verticalAlign=middle;whiteSpace=wrap;rounded=0;" vertex="1" parent="1">
          <mxGeometry x="30" y="1030" width="40" height="20" as="geometry"/>
        </mxCell>
        <UserObject label="&lt;div&gt;Relevance&lt;/div&gt;" tooltip="The work of the content marketing editorial team is particularly important in the Top of Funnel. At the beginning of the Customer Journey, neither an advantage communication nor a cost-benefit argumentation are in the foreground. In this phase, contexts and theme worlds are developed. The user&#39;s question &quot;what would all this have to do with him&quot; must be answered." id="9HiCa-SAGG04eWKxugLF-3">
          <mxCell style="text;html=1;strokeColor=none;fillColor=none;align=center;verticalAlign=middle;whiteSpace=wrap;rounded=0;" vertex="1" parent="1">
            <mxGeometry x="340" y="435" width="40" height="20" as="geometry"/>
          </mxCell>
        </UserObject>
      </root>
    </mxGraphModel>
  </diagram>
</mxfile>
